<svg version="1.1" id="Icons" xmlns="http://www.w3.org/2000/svg" xmlns:xlink="http://www.w3.org/1999/xlink" x="0px" y="0px" viewBox="0 0 32 32" style="enable-background:new 0 0 32 32;" xml:space="preserve">
<path d="M14.2,26c-0.1-0.6-0.2-1.3-0.2-2H7.6C7.3,24,7,23.7,7,23.4c0-0.3,0.2-0.6,0.5-0.6l6.8-1.1c1-4.4,5-7.7,9.7-7.7
	c1,0,1.9,0.1,2.8,0.4L28,8.2c0.1-0.5-0.3-1.1-0.8-1.2c-0.5-0.1-1.1,0.3-1.2,0.8L25.8,9H6.6l0-0.1c0.6-1.3,0.6-2.8-0.2-4
	C5.7,3.7,4.4,3,3,3H1C0.4,3,0,3.4,0,4s0.4,1,1,1h2c0.7,0,1.4,0.4,1.8,1c0.4,0.6,0.4,1.4,0.1,2L4.1,9.6c0,0,0,0,0,0
	c0,0.1,0,0.1-0.1,0.2C4,9.8,4,9.9,4,10c0,0,0,0,0,0c0,0.1,0,0.1,0,0.2c0,0.1,0,0.1,0,0.2l3.8,10.3l-0.6,0.1C5.9,21,5,22.1,5,23.4
	c0,1,0.5,1.8,1.3,2.3C6.1,26.1,6,26.5,6,27c0,1.7,1.3,3,3,3s3-1.3,3-3c0-0.4-0.1-0.7-0.2-1H14.2z M9,28c-0.6,0-1-0.4-1-1s0.4-1,1-1
	s1,0.4,1,1S9.6,28,9,28z" id="id_115" style="fill: rgb(67, 56, 202);"></path>
<path d="M18.3,18.3c-3.1,3.1-3.1,8.2,0,11.3s8.2,3.1,11.3,0s3.1-8.2,0-11.3S21.5,15.2,18.3,18.3z M26.8,22.6L25.4,24l1.4,1.4
	c0.4,0.4,0.4,1,0,1.4c-0.4,0.4-1,0.4-1.4,0L24,25.4l-1.4,1.4c-0.4,0.4-1,0.4-1.4,0c-0.4-0.4-0.4-1,0-1.4l1.4-1.4l-1.4-1.4
	c-0.4-0.4-0.4-1,0-1.4c0.4-0.4,1-0.4,1.4,0l1.4,1.4l1.4-1.4c0.4-0.4,1-0.4,1.4,0C27.2,21.6,27.2,22.2,26.8,22.6z" id="id_116" style="fill: rgb(67, 56, 202);"></path>
</svg>